<?xml version="1.0" standalone="no"?>
<!DOCTYPE svg PUBLIC "-//W3C//DTD SVG 20010904//EN"
 "http://www.w3.org/TR/2001/REC-SVG-20010904/DTD/svg10.dtd">
<svg version="1.0" xmlns="http://www.w3.org/2000/svg"
 width="230.000000pt" height="214.000000pt" viewBox="0 0 230.000000 214.000000"
 preserveAspectRatio="xMidYMid meet">
<metadata>
Created by potrace 1.10, written by Peter Selinger 2001-2011
</metadata>
<g transform="translate(0.000000,214.000000) scale(0.100000,-0.100000)"
fill="#000000" stroke="none">
<path d="M665 2115 c-228 -32 -420 -102 -477 -175 -27 -35 -42 -101 -51 -223
-3 -46 -6 -50 -43 -66 -70 -32 -78 -49 -80 -167 -2 -99 0 -107 23 -135 26 -30
51 -36 82 -19 17 8 18 -2 24 -158 16 -397 50 -585 142 -777 29 -62 56 -103 85
-129 52 -47 293 -166 416 -206 106 -34 262 -59 272 -44 8 11 158 10 186 -1 27
-12 166 12 271 46 116 37 358 156 413 205 83 71 173 313 201 539 14 111 31
365 31 463 0 69 1 72 19 62 32 -16 56 -12 82 16 22 24 24 34 25 132 l2 107
-35 33 c-20 18 -48 36 -64 39 -27 5 -29 8 -29 57 -1 89 -18 176 -42 212 -49
74 -196 136 -414 176 -108 19 -158 22 -529 24 -307 2 -435 -1 -510 -11z m768
-51 c220 -31 405 -95 450 -156 18 -23 19 -31 9 -54 -9 -19 -17 -24 -30 -19
-44 19 -234 66 -330 82 -87 15 -165 18 -417 18 -329 0 -411 -7 -593 -50 -124
-30 -122 -30 -122 -7 0 82 278 177 600 206 77 7 320 -4 433 -20z m367 -24
c119 -36 225 -82 257 -112 30 -28 30 -78 1 -105 -45 -41 -223 -112 -345 -138
-54 -11 -37 2 24 20 117 34 194 90 209 152 17 66 -60 138 -193 179 -46 15 -83
28 -83 30 0 9 33 2 130 -26z m-1190 16 c0 -3 -26 -12 -57 -21 -157 -46 -228
-120 -190 -200 23 -48 70 -80 172 -115 71 -25 80 -30 45 -25 -73 10 -259 76
-309 109 -39 26 -46 37 -49 68 -3 31 2 40 30 62 44 33 89 52 218 92 98 31 140
40 140 30z m871 -181 c93 -12 336 -62 349 -72 13 -11 -101 -56 -210 -83 -382
-95 -859 -67 -1139 67 l-56 26 70 19 c246 64 677 83 986 43z m-1209 -130 c88
-49 230 -88 433 -117 123 -18 723 -18 865 0 202 26 389 75 467 123 35 22 36
22 49 4 24 -33 17 -97 -15 -142 -119 -165 -624 -277 -1090 -244 -310 23 -537
82 -691 181 -70 45 -93 82 -91 147 2 83 6 86 73 48z m1870 -137 c-21 -22 -22
-22 -22 -2 0 11 5 25 12 32 8 8 15 9 22 2 7 -7 3 -17 -12 -32z m-1969 10 c8
-30 0 -36 -18 -12 -18 24 -19 34 -1 34 7 0 16 -10 19 -22z m-40 -110 c-1 -93
-4 -104 -23 -117 -32 -21 -44 -1 -48 79 -4 69 -4 70 31 105 19 19 37 35 39 35
1 0 2 -46 1 -102z m2086 56 c24 -30 28 -100 10 -153 -12 -35 -17 -37 -43 -18
-15 11 -18 30 -20 114 -1 92 1 100 16 92 9 -5 26 -21 37 -35z m-109 -49 c0
-72 -1 -75 -24 -75 -33 0 -73 -34 -85 -73 -15 -45 -2 -111 23 -115 24 -5 37
16 31 49 -7 33 10 79 30 79 19 0 20 -88 5 -325 -20 -310 -54 -476 -135 -641
-39 -82 -50 -95 -100 -129 -74 -49 -240 -126 -353 -164 -95 -32 -264 -61 -352
-61 -88 0 -260 30 -353 61 -109 36 -277 115 -352 164 -52 35 -61 47 -105 139
-76 156 -110 318 -130 621 -16 250 -16 329 3 333 17 3 43 -60 32 -78 -12 -20
6 -51 28 -48 27 4 40 58 26 110 -11 44 -54 81 -86 75 -22 -4 -23 -2 -23 68 l0
72 40 -38 c99 -94 358 -178 642 -209 136 -14 441 -12 578 5 294 35 541 121
622 215 18 21 34 39 36 39 1 1 2 -33 2 -74z m35 -127 c10 -15 11 -24 5 -26
-11 -4 -39 25 -40 41 0 15 19 6 35 -15z"/>
<path d="M317 1304 c-3 -3 -3 -22 0 -41 7 -39 8 -39 -79 -17 -23 5 -28 3 -28
-13 0 -29 33 -54 77 -60 32 -4 45 0 68 19 31 27 38 75 15 102 -12 16 -41 21
-53 10z"/>
<path d="M1925 1286 c-21 -31 -11 -70 24 -97 46 -37 141 -7 141 44 0 16 -5 18
-27 13 -85 -21 -104 -16 -85 21 22 44 -26 61 -53 19z"/>
</g>
</svg>
